<svg xmlns="http://www.w3.org/2000/svg" xmlns:xlink="http://www.w3.org/1999/xlink" xmlns:lucid="lucid" width="572" height="520"><g transform="translate(-428 -200)" lucid:page-tab-id="0_0"><path d="M0 0h1760v1360H0z" fill="#fff"/><path d="M480 220h160v120H480z" stroke="#000" stroke-width="2" fill="#fff"/><use xlink:href="#a" transform="matrix(1,0,0,1,485,225) translate(29.599999999999994 59.0875)"/><path d="M480 400h160v120H480z" stroke="#000" stroke-width="2" fill="#fff"/><use xlink:href="#b" transform="matrix(1,0,0,1,485,405) translate(51.025 59.0875)"/><path d="M480 580h160v120H480z" stroke="#000" stroke-width="2" fill="#fff"/><use xlink:href="#c" transform="matrix(1,0,0,1,485,585) translate(36.525 59.0875)"/><path d="M820 580h160v120H820z" stroke="#000" stroke-width="2" fill="#fff"/><use xlink:href="#d" transform="matrix(1,0,0,1,825,585) translate(44.55 59.0875)"/><path d="M818 640H659.5" stroke="#000" stroke-width="2" fill="none"/><path d="M819 641h-1.03v-2H819z"/><path d="M644.24 640l14.26-4.64v9.28z" stroke="#000" stroke-width="2"/><path d="M560 578v-38.5" stroke="#000" stroke-width="2" fill="none"/><path d="M561 579h-2v-1.03h2z"/><path d="M560 524.24l4.64 14.26h-9.28z" stroke="#000" stroke-width="2"/><path d="M560 398v-38.5" stroke="#000" stroke-width="2" fill="none"/><path d="M561 399h-2v-1.03h2z"/><path d="M560 344.24l4.64 14.26h-9.28z" stroke="#000" stroke-width="2"/><path d="M642 280h39v180h-21.5" stroke="#000" stroke-width="2" fill="none"/><path d="M642.03 281H641v-2h1.03z"/><path d="M644.24 460l14.26-4.64v9.28z" stroke="#000" stroke-width="2"/><path d="M478 460h-39v180.67h21.5" stroke="#000" stroke-width="2" fill="none"/><path d="M479 461h-1.03v-2H479z"/><path d="M475.76 640.67l-14.26 4.63v-9.27z" stroke="#000" stroke-width="2"/><defs><path d="M24-231v-30h32v30H24zM24 0v-190h32V0H24" id="e"/><path d="M117-194c89-4 53 116 60 194h-32v-121c0-31-8-49-39-48C34-167 62-67 57 0H25l-1-190h30c1 10-1 24 2 32 11-22 29-35 61-36" id="f"/><path d="M135-143c-3-34-86-38-87 0 15 53 115 12 119 90S17 21 10-45l28-5c4 36 97 45 98 0-10-56-113-15-118-90-4-57 82-63 122-42 12 7 21 19 24 35" id="g"/><path d="M59-47c-2 24 18 29 38 22v24C64 9 27 4 27-40v-127H5v-23h24l9-43h21v43h35v23H59v120" id="h"/><path d="M114-163C36-179 61-72 57 0H25l-1-190h30c1 12-1 29 2 39 6-27 23-49 58-41v29" id="i"/><path d="M84 4C-5 8 30-112 23-190h32v120c0 31 7 50 39 49 72-2 45-101 50-169h31l1 190h-30c-1-10 1-25-2-33-11 22-28 36-60 37" id="j"/><path d="M96-169c-40 0-48 33-48 73s9 75 48 75c24 0 41-14 43-38l32 2c-6 37-31 61-74 61-59 0-76-41-82-99-10-93 101-131 147-64 4 7 5 14 7 22l-32 3c-4-21-16-35-41-35" id="k"/><path d="M100-194c62-1 85 37 85 99 1 63-27 99-86 99S16-35 15-95c0-66 28-99 85-99zM99-20c44 1 53-31 53-75 0-43-8-75-51-75s-53 32-53 75 10 74 51 75" id="l"/><path d="M33 0v-38h34V0H33" id="m"/><path d="M24-231v-30h32v30H24zM-9 49c24 4 33-6 33-30v-209h32V24c2 40-23 58-65 49V49" id="n"/><g id="a"><use transform="matrix(0.05,0,0,0.05,0,0)" xlink:href="#e"/><use transform="matrix(0.05,0,0,0.05,3.95,0)" xlink:href="#f"/><use transform="matrix(0.05,0,0,0.05,13.949999999999998,0)" xlink:href="#g"/><use transform="matrix(0.05,0,0,0.05,22.95,0)" xlink:href="#h"/><use transform="matrix(0.05,0,0,0.05,27.950000000000003,0)" xlink:href="#i"/><use transform="matrix(0.05,0,0,0.05,33.9,0)" xlink:href="#j"/><use transform="matrix(0.05,0,0,0.05,43.9,0)" xlink:href="#k"/><use transform="matrix(0.05,0,0,0.05,52.900000000000006,0)" xlink:href="#h"/><use transform="matrix(0.05,0,0,0.05,57.900000000000006,0)" xlink:href="#l"/><use transform="matrix(0.05,0,0,0.05,67.9,0)" xlink:href="#i"/><use transform="matrix(0.05,0,0,0.05,72.85000000000001,0)" xlink:href="#m"/><use transform="matrix(0.05,0,0,0.05,77.85000000000001,0)" xlink:href="#n"/><use transform="matrix(0.05,0,0,0.05,81.80000000000001,0)" xlink:href="#g"/></g><path d="M141-36C126-15 110 5 73 4 37 3 15-17 15-53c-1-64 63-63 125-63 3-35-9-54-41-54-24 1-41 7-42 31l-33-3c5-37 33-52 76-52 45 0 72 20 72 64v82c-1 20 7 32 28 27v20c-31 9-61-2-59-35zM48-53c0 20 12 33 32 33 41-3 63-29 60-74-43 2-92-5-92 41" id="o"/><path d="M115-194c55 1 70 41 70 98S169 2 115 4C84 4 66-9 55-30l1 105H24l-1-265h31l2 30c10-21 28-34 59-34zm-8 174c40 0 45-34 45-75s-6-73-45-74c-42 0-51 32-51 76 0 43 10 73 51 73" id="p"/><g id="b"><use transform="matrix(0.05,0,0,0.05,0,0)" xlink:href="#o"/><use transform="matrix(0.05,0,0,0.05,10,0)" xlink:href="#p"/><use transform="matrix(0.05,0,0,0.05,20,0)" xlink:href="#p"/><use transform="matrix(0.05,0,0,0.05,30,0)" xlink:href="#m"/><use transform="matrix(0.05,0,0,0.05,35,0)" xlink:href="#n"/><use transform="matrix(0.05,0,0,0.05,38.95,0)" xlink:href="#g"/></g><path d="M85-194c31 0 48 13 60 33l-1-100h32l1 261h-30c-2-10 0-23-3-31C134-8 116 4 85 4 32 4 16-35 15-94c0-66 23-100 70-100zm9 24c-40 0-46 34-46 75 0 40 6 74 45 74 42 0 51-32 51-76 0-42-9-74-50-73" id="q"/><path d="M100-194c63 0 86 42 84 106H49c0 40 14 67 53 68 26 1 43-12 49-29l28 8c-11 28-37 45-77 45C44 4 14-33 15-96c1-61 26-98 85-98zm52 81c6-60-76-77-97-28-3 7-6 17-6 28h103" id="r"/><g id="c"><use transform="matrix(0.05,0,0,0.05,0,0)" xlink:href="#g"/><use transform="matrix(0.05,0,0,0.05,9,0)" xlink:href="#h"/><use transform="matrix(0.05,0,0,0.05,14,0)" xlink:href="#j"/><use transform="matrix(0.05,0,0,0.05,24,0)" xlink:href="#q"/><use transform="matrix(0.05,0,0,0.05,34,0)" xlink:href="#r"/><use transform="matrix(0.05,0,0,0.05,44,0)" xlink:href="#f"/><use transform="matrix(0.05,0,0,0.05,54,0)" xlink:href="#h"/><use transform="matrix(0.05,0,0,0.05,59,0)" xlink:href="#m"/><use transform="matrix(0.05,0,0,0.05,64,0)" xlink:href="#n"/><use transform="matrix(0.05,0,0,0.05,67.95,0)" xlink:href="#g"/></g><path d="M141 0L90-78 38 0H4l68-98-65-92h35l48 74 47-74h35l-64 92 68 98h-35" id="s"/><g id="d"><use transform="matrix(0.05,0,0,0.05,0,0)" xlink:href="#e"/><use transform="matrix(0.05,0,0,0.05,3.95,0)" xlink:href="#f"/><use transform="matrix(0.05,0,0,0.05,13.949999999999998,0)" xlink:href="#q"/><use transform="matrix(0.05,0,0,0.05,23.95,0)" xlink:href="#r"/><use transform="matrix(0.05,0,0,0.05,33.95,0)" xlink:href="#s"/><use transform="matrix(0.05,0,0,0.05,42.95,0)" xlink:href="#m"/><use transform="matrix(0.05,0,0,0.05,47.95,0)" xlink:href="#n"/><use transform="matrix(0.05,0,0,0.05,51.900000000000006,0)" xlink:href="#g"/></g></defs></g></svg>